<svg width="36px" height="35px" viewBox="173 8 36 35" version="1.1" xmlns="http://www.w3.org/2000/svg" xmlns:xlink="http://www.w3.org/1999/xlink">
    <!-- Generator: Sketch 40.3 (33839) - http://www.bohemiancoding.com/sketch -->
    <desc>Created with Sketch.</desc>
    <defs></defs>
    <g id="plus" stroke="none" stroke-width="1" fill="none" fill-rule="evenodd" transform="translate(173.505163, 8.000000)">
        <g id="Capa_1" fill="#000000">
            <path d="M17.5,0 C7.85076923,0 0,7.85009615 0,17.5 C0,27.1499038 7.85076923,35 17.5,35 C27.1492308,35 35,27.1499038 35,17.5 C35,7.85009615 27.1492308,0 17.5,0 L17.5,0 Z M25.9134615,18.8461538 L18.8461538,18.8461538 L18.8461538,26.25 C18.8461538,26.9930769 18.2430769,27.5961538 17.5,27.5961538 C16.7569231,27.5961538 16.1538462,26.9930769 16.1538462,26.25 L16.1538462,18.8461538 L9.08653846,18.8461538 C8.34346154,18.8461538 7.74038462,18.2430769 7.74038462,17.5 C7.74038462,16.7569231 8.34346154,16.1538462 9.08653846,16.1538462 L16.1538462,16.1538462 L16.1538462,9.42307692 C16.1538462,8.68 16.7569231,8.07692308 17.5,8.07692308 C18.2430769,8.07692308 18.8461538,8.68 18.8461538,9.42307692 L18.8461538,16.1538462 L25.9134615,16.1538462 C26.6565385,16.1538462 27.2596154,16.7569231 27.2596154,17.5 C27.2596154,18.2430769 26.6565385,18.8461538 25.9134615,18.8461538 L25.9134615,18.8461538 Z" id="Shape"></path>
        </g>
    </g>
</svg>