<svg width="43px" height="35px" viewBox="93 8 43 35" version="1.1" xmlns="http://www.w3.org/2000/svg" xmlns:xlink="http://www.w3.org/1999/xlink">
    <!-- Generator: Sketch 40.3 (33839) - http://www.bohemiancoding.com/sketch -->
    <desc>Created with Sketch.</desc>
    <defs></defs>
    <g id="multiple-users-silhouette" stroke="none" stroke-width="1" fill="none" fill-rule="evenodd" transform="translate(93.938908, 8.000000)">
        <g id="Capa_1" fill="#000000">
            <path d="M24.8886029,6.13632353 C26.7955882,7.33198529 28.1327941,9.35529412 28.37625,11.7038971 C29.1539706,12.0672794 30.0171324,12.27625 30.9322794,12.27625 C34.2732353,12.27625 36.9811029,9.56838235 36.9811029,6.22794118 C36.9811029,2.88698529 34.2732353,0.179117647 30.9322794,0.179117647 C27.6232353,0.180147059 24.9390441,2.83963235 24.8886029,6.13632353 L24.8886029,6.13632353 Z M20.9258824,18.5211765 C24.2668382,18.5211765 26.9747059,15.8127941 26.9747059,12.4723529 C26.9747059,9.13191176 24.2663235,6.42404412 20.9258824,6.42404412 C17.5854412,6.42404412 14.8760294,9.13242647 14.8760294,12.4728676 C14.8760294,15.8133088 17.5854412,18.5211765 20.9258824,18.5211765 L20.9258824,18.5211765 Z M23.4916912,18.9334559 L18.3590441,18.9334559 C14.0885294,18.9334559 10.6142647,22.4082353 10.6142647,26.67875 L10.6142647,32.9555882 L10.6302206,33.0538971 L11.0625735,33.1892647 C15.1380147,34.4626471 18.6786765,34.8872794 21.5929412,34.8872794 C27.2850735,34.8872794 30.5843382,33.2644118 30.7876471,33.1609559 L31.1916912,32.9566176 L31.2349265,32.9566176 L31.2349265,26.67875 C31.2364706,22.4082353 27.7622059,18.9334559 23.4916912,18.9334559 L23.4916912,18.9334559 Z M33.4991176,12.6890441 L28.4061029,12.6890441 C28.3510294,14.7267647 27.4811765,16.5616912 26.1053676,17.8813971 C29.9013235,19.0101471 32.6786765,22.5302206 32.6786765,26.6880147 L32.6786765,28.6222794 C37.7073529,28.4380147 40.6051471,27.0127941 40.7961029,26.9170588 L41.2001471,26.7122059 L41.2433824,26.7122059 L41.2433824,20.4333088 C41.2433824,16.1633088 37.7691176,12.6890441 33.4991176,12.6890441 L33.4991176,12.6890441 Z M10.3121324,12.2772794 C11.4954412,12.2772794 12.5963971,11.9319118 13.5290441,11.3436029 C13.8255147,9.40985294 14.8621324,7.72007353 16.3429412,6.56919118 C16.3491176,6.45595588 16.3599265,6.34375 16.3599265,6.22948529 C16.3599265,2.88852941 13.6515441,0.180661765 10.3121324,0.180661765 C6.97066176,0.180661765 4.26330882,2.88852941 4.26330882,6.22948529 C4.26330882,9.56889706 6.97066176,12.2772794 10.3121324,12.2772794 L10.3121324,12.2772794 Z M15.7443382,17.8813971 C14.3752206,16.5683824 13.5084559,14.7432353 13.4451471,12.7178676 C13.25625,12.7039706 13.0694118,12.6890441 12.8769118,12.6890441 L7.74477941,12.6890441 C3.47426471,12.6890441 0,16.1633088 0,20.4333088 L0,26.7111765 L0.0159558824,26.8079412 L0.448308824,26.9443382 C3.71772059,27.965 6.63558824,28.4354412 9.17,28.5836765 L9.17,26.6880147 C9.17102941,22.5302206 11.9473529,19.0111765 15.7443382,17.8813971 L15.7443382,17.8813971 Z" id="Shape"></path>
        </g>
    </g>
</svg>