<svg width="27px" height="35px" viewBox="319 8 27 35" version="1.1" xmlns="http://www.w3.org/2000/svg" xmlns:xlink="http://www.w3.org/1999/xlink">
    <!-- Generator: Sketch 40.3 (33839) - http://www.bohemiancoding.com/sketch -->
    <desc>Created with Sketch.</desc>
    <defs></defs>
    <g id="leaf" stroke="none" stroke-width="1" fill="none" fill-rule="evenodd" transform="translate(332.586051, 25.500000) scale(-1, 1) translate(-332.586051, -25.500000) translate(320.000000, 8.000000)">
        <g id="Capa_1" fill="#000000">
            <path d="M21.3484149,0 C21.3484149,0 18.4719475,2.79074275 15.3610054,3.91587862 C-7.67641304,12.2486051 2.03944746,28.4867663 2.35641304,28.5402808 C2.35641304,28.5402808 3.64824275,26.2906431 5.3932971,25.0075 C16.4667391,16.8668931 18.7173913,7.49665761 18.7173913,7.49665761 C18.7173913,7.49665761 16.2325181,18.7720471 6.38103261,25.7878986 C4.20519928,27.3366486 2.73190217,31.15 2.10824275,34.9613859 C2.10824275,34.9613859 3.65058877,34.3382337 4.31381341,34.1694475 C4.57244565,32.481712 5.11317029,30.865625 6.02735507,29.4219384 C19.7959873,31.0612319 24.305471,19.9666757 24.8945743,16.0980978 C26.285,6.96132246 21.3484149,0 21.3484149,0 L21.3484149,0 Z" id="Shape"></path>
        </g>
    </g>
</svg>