<svg width="38px" height="35px" viewBox="245 8 38 35" version="1.1" xmlns="http://www.w3.org/2000/svg" xmlns:xlink="http://www.w3.org/1999/xlink">
    <!-- Generator: Sketch 40.3 (33839) - http://www.bohemiancoding.com/sketch -->
    <desc>Created with Sketch.</desc>
    <defs></defs>
    <g id="bank-building" stroke="none" stroke-width="1" fill="none" fill-rule="evenodd" transform="translate(246.380241, 8.000000)">
        <g id="Capa_1" fill="#000000">
            <g id="Layer_1_78_">
                <g id="Group">
                    <path d="M33.3952128,31.8112766 L1.5906383,31.8112766 C0.711914894,31.8112766 0,32.5231915 0,33.4026596 C0,34.2806383 0.711914894,34.9925532 1.5906383,34.9925532 L33.3944681,34.9925532 C34.2731915,34.9925532 34.9851064,34.2806383 34.9851064,33.4026596 C34.9843617,32.5231915 34.2724468,31.8112766 33.3952128,31.8112766 L33.3952128,31.8112766 Z" id="Shape"></path>
                    <path d="M3.57819149,27.6760638 C2.69946809,27.6760638 1.98755319,28.3879787 1.98755319,29.2667021 C1.98755319,30.1454255 2.69946809,30.8580851 3.57819149,30.8580851 L31.4069149,30.8580851 C32.2856383,30.8580851 32.9975532,30.1454255 32.9975532,29.2667021 C32.9975532,28.3879787 32.2856383,27.6760638 31.4069149,27.6760638 L31.01,27.6760638 L31.01,13.3632979 L31.4069149,13.3632979 C31.8470213,13.3632979 32.2014894,13.0073404 32.2014894,12.5687234 C32.2014894,12.1301064 31.8455319,11.7741489 31.4069149,11.7741489 L3.57819149,11.7741489 C3.13882979,11.7741489 2.78361702,12.1301064 2.78361702,12.5687234 C2.78361702,13.0073404 3.13957447,13.3632979 3.57819149,13.3632979 L3.97585106,13.3632979 L3.97585106,27.6753191 L3.57819149,27.6753191 L3.57819149,27.6760638 Z M27.8287234,13.3632979 L27.8287234,27.6753191 L23.0582979,27.6753191 L23.0582979,13.3632979 L27.8287234,13.3632979 L27.8287234,13.3632979 Z M19.8770213,13.3632979 L19.8770213,27.6753191 L15.1065957,27.6753191 L15.1065957,13.3632979 L19.8770213,13.3632979 L19.8770213,13.3632979 Z M7.1556383,13.3632979 L11.9260638,13.3632979 L11.9260638,27.6753191 L7.1556383,27.6753191 L7.1556383,13.3632979 L7.1556383,13.3632979 Z" id="Shape"></path>
                    <path d="M1.5906383,10.3443617 L33.3944681,10.3443617 L33.4101064,10.3443617 C34.2895745,10.3443617 35.0007447,9.63244681 35.0007447,8.7537234 C35.0007447,8.05521277 34.5509574,7.46319149 33.9261702,7.2487234 L18.146383,0.148191489 C17.7315957,-0.0379787234 17.257234,-0.0379787234 16.8417021,0.148191489 L0.938297872,7.30382979 C0.25393617,7.61212766 -0.12212766,8.35531915 0.0357446809,9.08808511 C0.19287234,9.82085106 0.840744681,10.3443617 1.5906383,10.3443617 L1.5906383,10.3443617 Z" id="Shape"></path>
                </g>
            </g>
        </g>
    </g>
</svg>