<svg width="38px" height="47px" viewBox="0 10 38 47" version="1.1" xmlns="http://www.w3.org/2000/svg" xmlns:xlink="http://www.w3.org/1999/xlink">
    <!-- Generator: Sketch 40.3 (33839) - http://www.bohemiancoding.com/sketch -->
    <desc>Created with Sketch.</desc>
    <defs></defs>
    <g id="coffee" stroke="none" stroke-width="1" fill="none" fill-rule="evenodd" transform="translate(0.000000, 10.000000)">
        <g id="Capa_1" fill="#000000">
            <g id="Group">
                <path d="M34.976,5.122 L34.561,5.122 L34.561,4.415 C34.561,2.923 33.349,1.709 31.926,1.709 L31.922,1.709 L7.098,0 C5.604,0 4.39,1.215 4.39,2.707 L4.39,5.122 L3.976,5.122 C2.322,5.122 0.976,6.468 0.976,8.122 L0.976,11.951 C0.976,13.605 2.322,14.951 3.976,14.951 L4.07,14.951 L6.974,44.244 C6.974,45.736 8.188,46.951 9.682,46.951 L29.316,46.951 C29.689,46.951 30.045,46.875 30.369,46.739 C31.34,46.332 32.022,45.387 32.019,44.342 L34.928,14.95 L34.977,14.95 C36.631,14.95 37.977,13.604 37.977,11.95 L37.977,8.122 C37.976,6.468 36.63,5.122 34.976,5.122 L34.976,5.122 Z M6.39,2.707 C6.39,2.317 6.707,2 7.029,1.998 L31.854,3.707 C32.244,3.707 32.562,4.024 32.562,4.415 L32.562,5.122 L6.39,5.122 L6.39,2.707 L6.39,2.707 Z M32.103,22.904 L26.734,23.862 C24.917,21.741 22.317,20.536 19.509,20.536 C16.7,20.536 14.1,21.741 12.283,23.863 L6.894,22.903 L6.083,14.951 L32.915,14.951 L32.103,22.904 L32.103,22.904 Z M31.928,24.967 L31.152,32.823 L25.9,31.856 L25.528,32.35 C24.086,34.267 21.892,35.367 19.51,35.367 C17.127,35.367 14.933,34.267 13.491,32.35 L13.119,31.857 L7.849,32.824 L7.071,24.967 L13.121,26.043 L13.491,25.553 C14.933,23.636 17.127,22.536 19.51,22.536 C21.892,22.536 24.086,23.636 25.528,25.553 L25.898,26.044 L31.928,24.967 L31.928,24.967 Z M29.315,44.951 L9.681,44.951 C9.585,44.951 9.493,44.931 9.409,44.893 C9.156,44.779 8.973,44.507 8.969,44.145 L8.956,44.015 L8.059,34.817 L12.285,34.042 C14.102,36.162 16.701,37.366 19.509,37.366 C22.316,37.366 24.915,36.162 26.732,34.043 L30.939,34.817 L30.023,44.244 C30.022,44.627 29.699,44.951 29.315,44.951 L29.315,44.951 Z M35.976,11.951 C35.976,12.503 35.527,12.951 34.976,12.951 L3.976,12.951 C3.425,12.951 2.976,12.503 2.976,11.951 L2.976,8.122 C2.976,7.57 3.425,7.122 3.976,7.122 L4.39,7.122 L34.561,7.122 L34.976,7.122 C35.527,7.122 35.976,7.57 35.976,8.122 L35.976,11.951 L35.976,11.951 Z" id="Shape"></path>
                <path d="M19.476,24 C16.443,24 13.976,26.243 13.976,29 C13.976,31.757 16.443,34 19.476,34 C22.509,34 24.976,31.757 24.976,29 C24.976,26.243 22.508,24 19.476,24 L19.476,24 Z M19.476,32 C17.546,32 15.976,30.654 15.976,29 C15.976,27.346 17.546,26 19.476,26 C21.406,26 22.976,27.346 22.976,29 C22.976,30.654 21.405,32 19.476,32 L19.476,32 Z" id="Shape"></path>
            </g>
        </g>
    </g>
</svg>