<svg width="28px" height="37px" viewBox="29 7 28 37" version="1.1" xmlns="http://www.w3.org/2000/svg" xmlns:xlink="http://www.w3.org/1999/xlink">
    <!-- Generator: Sketch 40.3 (33839) - http://www.bohemiancoding.com/sketch -->
    <desc>Created with Sketch.</desc>
    <defs></defs>
    <g id="Group" stroke="none" stroke-width="1" fill="none" fill-rule="evenodd" transform="translate(30.000000, 8.000000)">
        <path d="M20.6641671,7.47790909 C20.6641671,3.34790909 17.319097,0 13.1933835,0 C9.06766995,0 5.72132849,3.34854545 5.72132849,7.47854545 C5.72132849,11.6085455 9.06766995,14.9564545 13.1933835,14.9564545 C17.3197327,14.9564545 20.6641671,11.6079091 20.6641671,7.47790909 Z" id="Path" stroke="#FFFFFF" fill="#000000"></path>
        <path d="M9.56542553,15.2727273 C4.29099637,15.2727273 0,19.5688182 0,24.8487273 L0,32.6091818 L0.0197067981,32.7307273 L0.553697457,32.8980909 C5.58719512,34.4724545 9.9601972,34.9974545 13.5595485,34.9974545 C20.5897898,34.9974545 24.6646471,32.991 24.9157499,32.8630909 L25.4147769,32.6104545 L25.4681759,24.8487273 C25.470083,19.5688182 21.1790867,15.2727273 15.9046575,15.2727273 L9.56542553,15.2727273 Z" id="Path" stroke="#FFFFFF" fill="#000000"></path>
    </g>
</svg>