<svg width="40px" height="33px" viewBox="16 16 40 33" version="1.1" xmlns="http://www.w3.org/2000/svg" xmlns:xlink="http://www.w3.org/1999/xlink">
    <!-- Generator: Sketch 40.3 (33839) - http://www.bohemiancoding.com/sketch -->
    <desc>Created with Sketch.</desc>
    <defs></defs>
    <g id="stairs" stroke="none" stroke-width="1" fill="none" fill-rule="evenodd" transform="translate(16.000000, 16.000000)">
        <g id="Layer_1" fill="#000000">
            <g id="Ladder-up">
                <path d="M38.7878487,0.615515273 L31.4879099,0.615515273 C31.1523322,0.615515273 30.8806957,0.887212182 30.8806957,1.22278794 L30.8806957,8.83048436 L23.9547568,8.83048436 C23.6191883,8.83048436 23.3475448,9.10218212 23.3475448,9.43775758 L23.3475448,15.704303 L16.271308,15.704303 C15.9357279,15.704303 15.6640359,15.9759395 15.6640359,16.3115762 L15.6640359,23.5606061 L8.885546,23.5606061 C8.54997,23.5606061 8.27827279,23.8322425 8.27827279,24.1678781 L8.27827279,30.9185444 L1.21209139,30.9185444 C0.876515636,30.9185444 0.604879273,31.1902433 0.604879273,31.5258188 C0.604879273,31.8613942 0.876515636,32.1330307 1.21209139,32.1330307 L8.88554624,32.1330307 C9.2211217,32.1330307 9.49275818,31.8613942 9.49275818,31.5258188 L9.49275818,24.7750901 L16.2713082,24.7750901 C16.606879,24.7750901 16.8785155,24.5034536 16.8785155,24.1678781 L16.8785155,16.9187881 L23.954757,16.9187881 C24.2903324,16.9187881 24.5620313,16.6471516 24.5620313,16.3115762 L24.5620313,10.0449695 L31.4879101,10.0449695 C31.8234856,10.0449695 32.0951822,9.77333303 32.0951822,9.43775758 L32.0951822,1.82999988 L38.7878489,1.82999988 C39.123429,1.82999988 39.3951187,1.5583637 39.3951187,1.22278794 C39.3951187,0.887212182 39.1234288,0.615515273 38.7878487,0.615515273 L38.7878487,0.615515273 Z" id="Shape"></path>
                <path d="M5.45451539,11.5044854 C5.60427291,11.5044854 5.75403042,11.4470904 5.86767194,11.333454 L14.5229398,2.67812091 L14.5229398,8.49551461 C14.5229398,8.84290867 14.804091,9.12406109 15.1514851,9.12406109 C15.4989393,9.12406109 15.7800304,8.84290867 15.7800304,8.49551461 L15.7800304,1.22278794 C15.7800304,0.875333455 15.4989393,0.594242606 15.1514851,0.594242606 L7.87875782,0.594242606 C7.53136376,0.594242606 7.25021248,0.875333515 7.25021248,1.22278794 C7.25021248,1.5701817 7.53136376,1.85133327 7.87875782,1.85133327 L13.6961573,1.85133327 L5.04142473,10.5060601 C4.8129397,10.7344853 4.8129397,11.1049698 5.04081842,11.3328483 C5.15506109,11.4470904 5.30481861,11.5044854 5.45451539,11.5044854 L5.45451539,11.5044854 Z" id="Shape"></path>
            </g>
        </g>
    </g>
</svg>